<svg xmlns="http://www.w3.org/2000/svg" viewBox="0 0 128 128" width="128" height="128">
  <rect width="128" height="128" rx="28" fill="#173f35"/>
  <rect x="10" y="10" width="108" height="108" rx="20" fill="none" stroke="#e2e8df" stroke-width="3"/>
  <path d="M88 72c18 2 19 32 0 34" fill="none" stroke="#a94f32" stroke-width="11" stroke-linecap="round"/>
  <path fill="#a94f32" d="M38 64c0-4 4-7 9-7h38c5 0 9 3 9 7l-3 38c-1 7-7 12-14 12H55c-7 0-13-5-14-12Z"/>
  <ellipse cx="64" cy="59" rx="26" ry="8" fill="#102c26"/>
  <ellipse cx="64" cy="59" rx="26" ry="8" fill="none" stroke="#b95f3c" stroke-width="2.4"/>
  <path d="M64 59c2-9 3-20 2-32" fill="none" stroke="#e2e8df" stroke-width="2.5" stroke-linecap="round"/>
  <g fill="#e2e8df">
    <ellipse cx="52" cy="48" rx="10" ry="4.6" transform="rotate(-38 52 48)"/>
    <ellipse cx="77" cy="46" rx="10" ry="4.6" transform="rotate(36 77 46)"/>
    <ellipse cx="51" cy="36" rx="9" ry="4.2" transform="rotate(-28 51 36)"/>
    <ellipse cx="78" cy="33" rx="8.5" ry="4" transform="rotate(30 78 33)"/>
    <ellipse cx="56" cy="26" rx="7.5" ry="3.6" transform="rotate(-16 56 26)"/>
    <ellipse cx="73" cy="24" rx="7.5" ry="3.6" transform="rotate(20 73 24)"/>
    <ellipse cx="64" cy="19" rx="6.5" ry="3.2"/>
  </g>
  <g fill="#a94f32">
    <circle cx="58" cy="41" r="3.1"/>
    <circle cx="71" cy="37" r="2.7"/>
    <circle cx="66" cy="29" r="2.4"/>
  </g>
</svg>
